<?xml version="1.0" encoding="UTF-8" standalone="no"?><!DOCTYPE svg PUBLIC "-//W3C//DTD SVG 1.1//EN" "http://www.w3.org/Graphics/SVG/1.1/DTD/svg11.dtd"><svg width="100%" height="100%" viewBox="0 0 1773 1773" version="1.1" xmlns="http://www.w3.org/2000/svg" xmlns:xlink="http://www.w3.org/1999/xlink" xml:space="preserve" xmlns:serif="http://www.serif.com/" style="fill-rule:evenodd;clip-rule:evenodd;stroke-linecap:round;stroke-linejoin:round;stroke-miterlimit:1.5;"><rect x="0.5" y="0.5" width="1771.65" height="1771.65" style="fill:#72b2bf;stroke:#000;stroke-width:1px;"/><path d="M280.35,484.607l559.389,-0.181l-0.009,126.472l-407.99,0.181l0.173,206.536l349.593,-0.002l0.069,126.473l-349.612,-0.069l-0.121,344.633l-151.455,0.038l-0.037,-804.081Z" style="fill:#fff;"/><path d="M952.745,1011.94c-0,-159.708 129.662,-289.371 289.37,-289.371c159.707,0 289.37,129.663 289.37,289.371c-0,159.707 -129.663,289.37 -289.37,289.37c-159.708,-0 -289.37,-129.663 -289.37,-289.37Z" style="fill:url(#_Linear1);"/><path d="M1458.69,1012.47c-0,119.574 -97.189,216.654 -216.898,216.654c-119.709,-0 -216.897,-97.08 -216.897,-216.654c-0,-119.574 97.188,-216.654 216.897,-216.654c119.709,0 216.898,97.08 216.898,216.654Z" style="fill:url(#_Linear2);"/><defs><linearGradient id="_Linear1" x1="0" y1="0" x2="1" y2="0" gradientUnits="userSpaceOnUse" gradientTransform="matrix(3.54376e-14,-578.74,578.74,3.54376e-14,1242.11,1301.31)"><stop offset="0" style="stop-color:#336670;stop-opacity:1"/><stop offset="1" style="stop-color:#14282c;stop-opacity:1"/><stop offset="1" style="stop-color:#fff;stop-opacity:1"/></linearGradient><linearGradient id="_Linear2" x1="0" y1="0" x2="1" y2="0" gradientUnits="userSpaceOnUse" gradientTransform="matrix(2.65324e-14,433.307,-433.795,2.65623e-14,1241.79,795.816)"><stop offset="0" style="stop-color:#fff;stop-opacity:1"/><stop offset="1" style="stop-color:#72b2bf;stop-opacity:1"/></linearGradient></defs></svg>